<svg width="320" height="400" viewBox="0 0 320 400" fill="none" xmlns="http://www.w3.org/2000/svg">
<path fill-rule="evenodd" clip-rule="evenodd" d="M95.592 259.661C98.8886 257.581 102.925 256.644 107.077 257.301L205.746 272.934C209.155 273.474 212.158 275.013 214.503 277.206L257.071 301.799C265.62 298.816 275.415 299.731 283.535 305.134L292.299 310.966C298.5 315.093 300.183 323.467 296.057 329.671L277.836 357.068C273.71 363.271 265.338 364.954 259.136 360.828L250.372 354.996C242.112 349.499 237.465 340.606 237.047 331.397L215.339 318.856L209.169 357.826C204.852 385.093 179.254 403.696 151.994 399.377L119.135 394.171C91.8756 389.852 73.2774 364.247 77.5948 336.98L83.403 300.297L57.6708 307.742C55.0576 316.582 48.4151 324.101 39.0774 327.456L29.1715 331.016C22.1614 333.534 14.4366 329.891 11.9186 322.879L0.797507 291.91C-1.72036 284.898 1.92203 277.172 8.9319 274.653L18.8378 271.094C28.015 267.797 37.7427 269.258 45.3264 274.204L95.592 259.661ZM178.653 324.741C176.257 324.741 174.315 326.684 174.315 329.08C174.315 336.215 171.482 343.058 166.438 348.103C161.396 353.147 154.558 355.98 147.428 355.982C139.825 355.951 132.529 352.986 127.059 347.704L126.66 347.304H133.538C135.934 347.304 137.877 345.362 137.877 342.966C137.877 340.569 135.934 338.627 133.538 338.627H116.222C116.068 338.625 115.914 338.632 115.761 338.647C115.725 338.651 115.689 338.656 115.653 338.66C115.617 338.664 115.58 338.669 115.544 338.674C115.51 338.679 115.475 338.685 115.44 338.691C115.406 338.697 115.372 338.703 115.338 338.71C115.303 338.716 115.27 338.725 115.235 338.732C115.198 338.741 115.161 338.748 115.124 338.758C115.094 338.765 115.065 338.774 115.035 338.782C114.999 338.792 114.963 338.801 114.927 338.812C114.893 338.822 114.86 338.834 114.826 338.845C114.79 338.857 114.754 338.868 114.719 338.881C114.69 338.891 114.663 338.902 114.634 338.913C114.595 338.928 114.555 338.944 114.516 338.96C114.5 338.967 114.485 338.974 114.469 338.981C114.354 339.03 114.24 339.085 114.128 339.145C114.118 339.15 114.108 339.156 114.098 339.161C113.986 339.222 113.877 339.289 113.771 339.361C113.764 339.365 113.757 339.37 113.75 339.375C113.644 339.447 113.54 339.524 113.44 339.606C113.406 339.634 113.373 339.663 113.34 339.692C113.265 339.757 113.191 339.825 113.12 339.897C113.04 339.976 112.964 340.059 112.892 340.143C112.871 340.168 112.849 340.193 112.828 340.218C112.807 340.244 112.787 340.271 112.766 340.298C112.745 340.324 112.724 340.351 112.704 340.378C112.676 340.415 112.649 340.453 112.623 340.491C112.609 340.511 112.595 340.53 112.582 340.55C112.515 340.65 112.453 340.753 112.395 340.858C112.385 340.876 112.374 340.894 112.363 340.913C112.339 340.959 112.316 341.006 112.293 341.053C112.286 341.067 112.278 341.081 112.272 341.096C112.249 341.144 112.227 341.192 112.206 341.241C112.198 341.257 112.191 341.274 112.184 341.29C112.168 341.329 112.153 341.367 112.138 341.406C112.124 341.442 112.11 341.478 112.097 341.515C112.091 341.532 112.085 341.55 112.08 341.567C112.064 341.614 112.048 341.66 112.034 341.708C112.023 341.743 112.014 341.778 112.005 341.814C111.997 341.843 111.988 341.872 111.98 341.902C111.971 341.939 111.963 341.976 111.955 342.014C111.947 342.048 111.939 342.082 111.932 342.116C111.926 342.15 111.92 342.184 111.914 342.219C111.908 342.253 111.902 342.288 111.897 342.323C111.891 342.359 111.887 342.395 111.883 342.431C111.878 342.467 111.873 342.503 111.87 342.539C111.856 342.681 111.849 342.823 111.849 342.966V360.322C111.85 362.718 113.791 364.662 116.187 364.662C118.583 364.661 120.525 362.718 120.525 360.322V353.44L120.962 353.879C120.98 353.896 120.998 353.913 121.015 353.93C128.098 360.779 137.553 364.624 147.404 364.661C147.409 364.661 147.415 364.661 147.42 364.661C156.854 364.661 165.902 360.912 172.572 354.239C179.243 347.567 182.991 338.517 182.991 329.08C182.991 326.684 181.049 324.741 178.653 324.741ZM147.42 293.499C137.986 293.499 128.939 297.248 122.268 303.921C115.597 310.593 111.849 319.643 111.849 329.08C111.849 331.476 113.791 333.419 116.187 333.419C118.583 333.419 120.525 331.476 120.525 329.08C120.525 321.945 123.358 315.102 128.402 310.057C133.444 305.014 140.281 302.179 147.411 302.177C155.014 302.208 162.311 305.174 167.78 310.455L168.18 310.856H161.301C158.905 310.856 156.963 312.798 156.963 315.195C156.963 317.591 158.905 319.534 161.301 319.534H178.652C178.724 319.534 178.796 319.532 178.868 319.529C178.905 319.527 178.941 319.523 178.977 319.52C179.01 319.518 179.043 319.515 179.075 319.512C179.133 319.507 179.19 319.501 179.247 319.493C179.257 319.491 179.268 319.49 179.278 319.489C179.409 319.47 179.537 319.444 179.664 319.414C179.673 319.412 179.683 319.41 179.692 319.407C179.741 319.395 179.79 319.382 179.838 319.368C179.861 319.362 179.885 319.355 179.908 319.348C179.943 319.337 179.978 319.326 180.012 319.315C180.048 319.303 180.084 319.291 180.119 319.279C180.155 319.266 180.19 319.252 180.224 319.239C180.251 319.229 180.277 319.218 180.303 319.207C180.339 319.193 180.374 319.177 180.409 319.162C180.443 319.146 180.478 319.131 180.512 319.115C180.534 319.105 180.556 319.094 180.578 319.083C180.622 319.061 180.665 319.039 180.708 319.016C180.724 319.007 180.74 318.999 180.755 318.99C180.799 318.966 180.842 318.941 180.885 318.915C180.908 318.901 180.931 318.886 180.954 318.872C180.992 318.848 181.03 318.824 181.067 318.799C181.081 318.789 181.096 318.779 181.11 318.769C181.155 318.739 181.199 318.708 181.243 318.675C181.255 318.666 181.267 318.656 181.279 318.647C181.401 318.554 181.518 318.455 181.631 318.348C181.713 318.271 181.791 318.191 181.867 318.108C181.947 318.019 182.023 317.928 182.095 317.834C182.108 317.817 182.122 317.8 182.135 317.783C182.166 317.741 182.194 317.699 182.224 317.656C182.234 317.641 182.245 317.626 182.255 317.61C182.279 317.575 182.301 317.54 182.324 317.505C182.341 317.478 182.358 317.451 182.374 317.424C182.434 317.324 182.488 317.223 182.539 317.119C182.551 317.095 182.564 317.07 182.576 317.045C182.588 317.02 182.599 316.994 182.611 316.968C182.629 316.929 182.646 316.889 182.663 316.849C182.672 316.826 182.681 316.804 182.69 316.782C182.707 316.737 182.725 316.692 182.741 316.647C182.749 316.623 182.757 316.599 182.764 316.575C182.778 316.534 182.792 316.493 182.804 316.451C182.811 316.427 182.818 316.404 182.825 316.381C182.913 316.07 182.968 315.746 182.985 315.412C182.988 315.34 182.991 315.268 182.991 315.195V297.838C182.991 295.442 181.048 293.499 178.652 293.499C176.257 293.5 174.315 295.442 174.315 297.838V304.718L173.878 304.281C173.86 304.264 173.842 304.247 173.825 304.23C166.742 297.381 157.287 293.537 147.436 293.499H147.42Z" fill="#3869F4"/>
<path d="M191.132 147.461C200.332 147.461 207.79 154.921 207.79 164.123C207.79 173.326 200.332 180.786 191.132 180.786C181.933 180.786 174.475 173.326 174.475 164.123C174.475 154.921 181.933 147.461 191.132 147.461Z" fill="#3869F4"/>
<path d="M129.499 137.464C138.699 137.464 146.157 144.924 146.157 154.126C146.157 163.328 138.699 170.788 129.499 170.788C120.3 170.788 112.842 163.328 112.842 154.126C112.842 144.924 120.3 137.464 129.499 137.464Z" fill="#3869F4"/>
<path fill-rule="evenodd" clip-rule="evenodd" d="M201.127 0C212.626 9.61829e-05 221.949 9.32501 221.949 20.8279C221.949 30.3483 215.563 38.3763 206.842 40.8608L203.941 61.5007C218.957 66.3377 229.856 74.8348 231.832 83.2081L246.296 85.6326C272.339 89.9977 290.278 113.778 287.785 139.673C292.841 140.328 300.735 142.091 307.412 147.482C318.979 156.819 321.372 171.181 319.358 185.631C318.391 192.575 316.574 201.841 312.245 209.85C307.543 218.546 298.196 228.273 282.936 228.273C279.351 228.273 275.725 228.005 272.182 227.382C263.81 249.053 241.122 262.603 217.32 258.614L100.095 238.966C75.7188 234.88 58.4418 213.786 58.3735 189.869C56.6627 189.993 54.9374 189.971 53.2136 189.803C50.8258 189.57 39.1408 189.083 30.1492 180.521C20.1578 171.007 18.5032 157.325 20.0936 143.863C20.8975 137.059 22.3882 128.131 25.9278 120.409C29.4293 112.77 37.8404 100.807 54.0391 100.807C60.1051 100.807 66.3091 101.712 72.0754 104.235C77.8701 78.5551 102.792 61.5808 129.071 65.9852L150.826 69.6309C154.071 60.9775 168.511 56.3261 185.95 57.8567L188.795 37.6097C183.646 33.8179 180.305 27.7136 180.305 20.8279C180.305 9.32508 189.627 0.000209217 201.127 0ZM126.824 99.2699C113.215 96.9893 100.333 106.176 98.0524 119.789L88.4377 177.186C86.1575 190.799 95.342 203.684 108.951 205.965L209.845 222.876C223.455 225.157 236.337 215.97 238.618 202.356L248.232 144.961C250.512 131.347 241.328 118.461 227.718 116.18L126.824 99.2699ZM276.492 207.849C278.128 208.088 279.929 208.232 281.906 208.269L282.936 208.279C293.469 208.279 297.535 196.356 299.389 184.061L299.561 182.87C302.275 163.392 292.617 160.371 284.599 159.457L276.492 207.849ZM54.0391 120.802C44.8214 120.802 41.4453 133.507 39.9444 146.21C37.3482 168.185 48.1044 169.216 55.1518 169.902C57.5699 170.138 59.5636 169.579 61.2504 168.372L68.4193 125.574C65.7918 122.755 61.5164 120.956 54.9127 120.811L54.0391 120.802Z" fill="#3869F4"/>
</svg>
