<svg width="156" height="40" viewBox="0 0 156 40" fill="none" xmlns="http://www.w3.org/2000/svg">
<path fill-rule="evenodd" clip-rule="evenodd" d="M9.5592 25.9661C9.88886 25.7581 10.2925 25.6644 10.7077 25.7301L20.5746 27.2934C20.9155 27.3474 21.2158 27.5013 21.4503 27.7206L25.7071 30.1799C26.562 29.8816 27.5415 29.9731 28.3535 30.5134L29.2299 31.0966C29.85 31.5093 30.0183 32.3467 29.6057 32.9671L27.7835 35.7068C27.371 36.3271 26.5338 36.4954 25.9136 36.0828L25.0372 35.4996C24.2112 34.9499 23.7465 34.0606 23.7047 33.1397L21.5339 31.8856L20.9169 35.7826C20.4852 38.5093 17.9254 40.3696 15.1994 39.9377L11.9135 39.4171C9.18756 38.9852 7.32774 36.4247 7.75948 33.698L8.3403 30.0297L5.76708 30.7742C5.50576 31.6582 4.84151 32.4101 3.90774 32.7456L2.91715 33.1016C2.21614 33.3534 1.44366 32.9891 1.19186 32.2879L0.0797507 29.191C-0.172036 28.4898 0.192203 27.7172 0.89319 27.4653L1.88378 27.1094C2.8015 26.7797 3.77427 26.9258 4.53264 27.4204L9.5592 25.9661ZM17.8653 32.4741C17.6257 32.4741 17.4315 32.6684 17.4315 32.908C17.4315 33.6215 17.1482 34.3058 16.6438 34.8103C16.1396 35.3147 15.4558 35.598 14.7428 35.5982C13.9825 35.5951 13.2529 35.2986 12.7059 34.7704L12.666 34.7304H13.3538C13.5934 34.7304 13.7877 34.5362 13.7877 34.2966C13.7877 34.0569 13.5934 33.8627 13.3538 33.8627H11.6222C11.6068 33.8625 11.5914 33.8632 11.5761 33.8647C11.5725 33.8651 11.5689 33.8656 11.5653 33.866C11.5617 33.8664 11.558 33.8669 11.5544 33.8674C11.551 33.8679 11.5475 33.8685 11.544 33.8691C11.5406 33.8697 11.5372 33.8703 11.5338 33.871C11.5303 33.8717 11.527 33.8725 11.5235 33.8732C11.5198 33.8741 11.5161 33.8748 11.5124 33.8758C11.5094 33.8765 11.5065 33.8774 11.5035 33.8782C11.4999 33.8792 11.4963 33.8801 11.4927 33.8812C11.4893 33.8822 11.486 33.8834 11.4826 33.8845C11.479 33.8857 11.4754 33.8868 11.4719 33.8881C11.469 33.8891 11.4663 33.8902 11.4634 33.8913C11.4595 33.8928 11.4555 33.8944 11.4516 33.896C11.45 33.8967 11.4485 33.8974 11.4469 33.8981C11.4354 33.903 11.424 33.9085 11.4128 33.9145C11.4118 33.915 11.4108 33.9156 11.4098 33.9161C11.3986 33.9222 11.3877 33.9289 11.3771 33.9361C11.3764 33.9365 11.3757 33.937 11.375 33.9375C11.3644 33.9447 11.354 33.9524 11.344 33.9606C11.3406 33.9634 11.3373 33.9663 11.334 33.9692C11.3265 33.9757 11.3191 33.9825 11.312 33.9897C11.304 33.9976 11.2964 34.0059 11.2892 34.0143C11.2871 34.0168 11.2849 34.0193 11.2828 34.0218C11.2807 34.0244 11.2787 34.0271 11.2766 34.0298C11.2745 34.0324 11.2724 34.0351 11.2704 34.0378C11.2676 34.0415 11.2649 34.0453 11.2623 34.0491C11.2609 34.0511 11.2595 34.053 11.2582 34.055C11.2515 34.065 11.2453 34.0753 11.2395 34.0858C11.2385 34.0876 11.2374 34.0894 11.2363 34.0913C11.2339 34.0959 11.2316 34.1006 11.2293 34.1053C11.2286 34.1067 11.2278 34.1081 11.2272 34.1096C11.2249 34.1144 11.2227 34.1192 11.2206 34.1241C11.2198 34.1257 11.2191 34.1274 11.2184 34.129C11.2168 34.1329 11.2153 34.1367 11.2138 34.1406C11.2124 34.1442 11.211 34.1478 11.2097 34.1515C11.2091 34.1532 11.2085 34.155 11.208 34.1567C11.2064 34.1614 11.2048 34.166 11.2034 34.1708C11.2023 34.1743 11.2014 34.1778 11.2005 34.1814C11.1997 34.1843 11.1988 34.1872 11.198 34.1902C11.1971 34.1939 11.1963 34.1977 11.1955 34.2014C11.1947 34.2048 11.1939 34.2082 11.1932 34.2116C11.1926 34.215 11.192 34.2184 11.1914 34.2219C11.1908 34.2253 11.1902 34.2288 11.1897 34.2323C11.1891 34.2359 11.1887 34.2395 11.1883 34.2431C11.1878 34.2467 11.1873 34.2503 11.187 34.2539C11.1856 34.2681 11.1849 34.2823 11.1849 34.2966V36.0322C11.185 36.2718 11.3791 36.4661 11.6187 36.4661C11.8583 36.4661 12.0525 36.2718 12.0525 36.0322V35.344L12.0962 35.3879C12.098 35.3896 12.0998 35.3913 12.1015 35.393C12.8098 36.0779 13.7553 36.4624 14.7404 36.4661C14.7409 36.4661 14.7415 36.4661 14.742 36.4661C15.6854 36.4661 16.5902 36.0912 17.2572 35.4239C17.9243 34.7567 18.2991 33.8517 18.2991 32.908C18.2991 32.6684 18.1049 32.4741 17.8653 32.4741ZM14.742 29.3499C13.7986 29.3499 12.8939 29.7248 12.2268 30.3921C11.5597 31.0593 11.1849 31.9643 11.1849 32.908C11.1849 33.1476 11.3791 33.3419 11.6187 33.3419C11.8583 33.3419 12.0525 33.1476 12.0525 32.908C12.0525 32.1945 12.3358 31.5102 12.8402 31.0057C13.3444 30.5014 14.0281 30.2179 14.7411 30.2177C15.5014 30.2208 16.2311 30.5174 16.778 31.0455L16.818 31.0856H16.1301C15.8905 31.0856 15.6963 31.2798 15.6963 31.5195C15.6963 31.7591 15.8905 31.9534 16.1301 31.9534H17.8652C17.8724 31.9534 17.8796 31.9532 17.8868 31.9529C17.8905 31.9527 17.8941 31.9523 17.8977 31.952C17.901 31.9518 17.9043 31.9515 17.9075 31.9512C17.9133 31.9507 17.919 31.9501 17.9247 31.9493C17.9257 31.9491 17.9268 31.949 17.9278 31.9489C17.9409 31.947 17.9537 31.9444 17.9664 31.9414C17.9673 31.9412 17.9683 31.941 17.9692 31.9407C17.9741 31.9395 17.979 31.9382 17.9838 31.9368C17.9861 31.9362 17.9885 31.9355 17.9908 31.9348C17.9943 31.9337 17.9978 31.9326 18.0012 31.9315C18.0048 31.9303 18.0084 31.9291 18.0119 31.9279C18.0155 31.9266 18.019 31.9252 18.0224 31.9239C18.0251 31.9229 18.0277 31.9218 18.0303 31.9207C18.0339 31.9193 18.0374 31.9177 18.0409 31.9162C18.0443 31.9146 18.0478 31.9131 18.0512 31.9115C18.0534 31.9105 18.0556 31.9094 18.0578 31.9083C18.0622 31.9061 18.0665 31.9039 18.0708 31.9016C18.0724 31.9007 18.074 31.8999 18.0755 31.899C18.0799 31.8966 18.0842 31.8941 18.0885 31.8915C18.0908 31.8901 18.0931 31.8886 18.0954 31.8872C18.0992 31.8848 18.103 31.8824 18.1067 31.8799C18.1081 31.8789 18.1096 31.8779 18.111 31.8769C18.1155 31.8739 18.1199 31.8708 18.1243 31.8675C18.1255 31.8666 18.1267 31.8656 18.1279 31.8647C18.1401 31.8554 18.1518 31.8455 18.1631 31.8348C18.1713 31.8271 18.1791 31.8191 18.1867 31.8108C18.1947 31.8019 18.2023 31.7928 18.2095 31.7834C18.2108 31.7817 18.2122 31.78 18.2135 31.7783C18.2166 31.7741 18.2194 31.7699 18.2224 31.7656C18.2234 31.7641 18.2245 31.7626 18.2255 31.761C18.2279 31.7575 18.2301 31.754 18.2324 31.7505C18.2341 31.7478 18.2358 31.7451 18.2374 31.7424C18.2434 31.7324 18.2488 31.7222 18.2539 31.7119C18.2551 31.7095 18.2564 31.707 18.2576 31.7045C18.2588 31.702 18.2599 31.6994 18.2611 31.6968C18.2629 31.6929 18.2646 31.6889 18.2663 31.6849C18.2672 31.6826 18.2681 31.6804 18.269 31.6782C18.2707 31.6737 18.2725 31.6692 18.2741 31.6647C18.2749 31.6623 18.2757 31.6599 18.2764 31.6575C18.2778 31.6534 18.2792 31.6493 18.2804 31.6451C18.2811 31.6427 18.2818 31.6404 18.2825 31.6381C18.2913 31.607 18.2968 31.5746 18.2985 31.5412C18.2988 31.534 18.2991 31.5268 18.2991 31.5195V29.7838C18.2991 29.5442 18.1048 29.3499 17.8652 29.3499C17.6257 29.35 17.4314 29.5442 17.4314 29.7838V30.4718L17.3878 30.4281C17.386 30.4264 17.3842 30.4247 17.3825 30.423C16.6742 29.7381 15.7287 29.3537 14.7436 29.3499H14.742Z" fill="#3869F4"/>
<path d="M19.1132 14.7461C20.0332 14.7461 20.779 15.4921 20.779 16.4123C20.779 17.3326 20.0332 18.0786 19.1132 18.0786C18.1933 18.0786 17.4475 17.3326 17.4475 16.4123C17.4475 15.4921 18.1933 14.7461 19.1132 14.7461Z" fill="#3869F4"/>
<path d="M12.9499 13.7464C13.8699 13.7464 14.6157 14.4924 14.6157 15.4126C14.6157 16.3328 13.8699 17.0788 12.9499 17.0788C12.03 17.0788 11.2842 16.3328 11.2842 15.4126C11.2842 14.4924 12.03 13.7464 12.9499 13.7464Z" fill="#3869F4"/>
<path fill-rule="evenodd" clip-rule="evenodd" d="M20.1127 0C21.2626 9.61829e-06 22.1949 0.932501 22.1949 2.08279C22.1949 3.03483 21.5563 3.83763 20.6842 4.08608L20.3941 6.15007C21.8957 6.63377 22.9856 7.48348 23.1832 8.32081L24.6296 8.56326C27.2339 8.99977 29.0278 11.3778 28.7785 13.9673C29.2841 14.0328 30.0735 14.2091 30.7412 14.7482C31.8979 15.6819 32.1372 17.1181 31.9358 18.5631C31.8391 19.2575 31.6574 20.1841 31.2245 20.985C30.7543 21.8546 29.8196 22.8273 28.2936 22.8273C27.9351 22.8273 27.5725 22.8005 27.2182 22.7382C26.381 24.9053 24.1122 26.2603 21.732 25.8614L10.0095 23.8966C7.57188 23.488 5.84418 21.3786 5.83735 18.9869C5.66627 18.9993 5.49374 18.9971 5.32136 18.9803C5.08258 18.957 3.91408 18.9083 3.01492 18.0521C2.01578 17.1007 1.85032 15.7325 2.00936 14.3863C2.08975 13.7059 2.23882 12.8131 2.59278 12.0409C2.94293 11.277 3.78404 10.0807 5.40391 10.0807C6.01051 10.0807 6.63091 10.1712 7.20754 10.4235C7.78701 7.85551 10.2792 6.15808 12.9071 6.59852L15.0826 6.96309C15.4071 6.09775 16.8511 5.63261 18.595 5.78567L18.8795 3.76097C18.3646 3.38179 18.0305 2.77136 18.0305 2.08279C18.0305 0.932508 18.9627 2.09217e-05 20.1127 0ZM12.6824 9.92699C11.3215 9.69893 10.0333 10.6176 9.80524 11.9789L8.84377 17.7186C8.61575 19.0799 9.5342 20.3684 10.8951 20.5965L20.9845 22.2876C22.3455 22.5157 23.6337 21.597 23.8618 20.2356L24.8232 14.4961C25.0512 13.1347 24.1328 11.8461 22.7718 11.618L12.6824 9.92699ZM27.6492 20.7849C27.8128 20.8088 27.9929 20.8232 28.1906 20.8269L28.2936 20.8279C29.3469 20.8279 29.7535 19.6356 29.9389 18.4061L29.9561 18.287C30.2275 16.3392 29.2617 16.0371 28.4599 15.9457L27.6492 20.7849ZM5.40391 12.0802C4.48214 12.0802 4.14453 13.3507 3.99444 14.621C3.73482 16.8185 4.81044 16.9216 5.51518 16.9902C5.75699 17.0138 5.95636 16.9579 6.12504 16.8372L6.84193 12.5574C6.57918 12.2755 6.15164 12.0956 5.49127 12.0811L5.40391 12.0802Z" fill="#3869F4"/>
<path d="M54.2955 31.5V8.22727H69.2045V11.7614H58.5114V18.0795H68.1818V21.6136H58.5114V31.5H54.2955ZM72.8636 31.5V14.0455H76.9773V31.5H72.8636ZM74.9318 11.5682C74.2803 11.5682 73.7197 11.3523 73.25 10.9205C72.7803 10.4811 72.5455 9.95454 72.5455 9.34091C72.5455 8.7197 72.7803 8.19318 73.25 7.76136C73.7197 7.32197 74.2803 7.10227 74.9318 7.10227C75.5909 7.10227 76.1515 7.32197 76.6136 7.76136C77.0833 8.19318 77.3182 8.7197 77.3182 9.34091C77.3182 9.95454 77.0833 10.4811 76.6136 10.9205C76.1515 11.3523 75.5909 11.5682 74.9318 11.5682ZM85.321 8.22727V31.5H81.2074V8.22727H85.321ZM97.2784 31.8409C95.5284 31.8409 94.017 31.4773 92.7443 30.75C91.4792 30.0152 90.5057 28.9773 89.8239 27.6364C89.142 26.2879 88.8011 24.7008 88.8011 22.875C88.8011 21.0795 89.142 19.5038 89.8239 18.1477C90.5133 16.7841 91.4754 15.7235 92.7102 14.9659C93.9451 14.2008 95.3958 13.8182 97.0625 13.8182C98.1383 13.8182 99.1534 13.9924 100.108 14.3409C101.07 14.6818 101.919 15.2121 102.653 15.9318C103.396 16.6515 103.979 17.5682 104.403 18.6818C104.828 19.7879 105.04 21.1061 105.04 22.6364V23.8977H90.733V21.125H101.097C101.089 20.3371 100.919 19.6364 100.585 19.0227C100.252 18.4015 99.786 17.9129 99.1875 17.5568C98.5966 17.2008 97.9072 17.0227 97.1193 17.0227C96.2784 17.0227 95.5398 17.2273 94.9034 17.6364C94.267 18.0379 93.7708 18.5682 93.4148 19.2273C93.0663 19.8788 92.8883 20.5947 92.8807 21.375V23.7955C92.8807 24.8106 93.0663 25.6818 93.4375 26.4091C93.8087 27.1288 94.3277 27.6818 94.9943 28.0682C95.661 28.447 96.4413 28.6364 97.3352 28.6364C97.9337 28.6364 98.4754 28.553 98.9602 28.3864C99.4451 28.2121 99.8655 27.9583 100.222 27.625C100.578 27.2917 100.847 26.8788 101.028 26.3864L104.869 26.8182C104.627 27.8333 104.165 28.7197 103.483 29.4773C102.809 30.2273 101.945 30.8106 100.892 31.2273C99.839 31.6364 98.6345 31.8409 97.2784 31.8409ZM117.361 14.0455V17.2273H107.043V14.0455H117.361ZM109.622 31.5V12.3977C109.622 11.2235 109.865 10.2462 110.349 9.46591C110.842 8.68561 111.501 8.10227 112.327 7.71591C113.152 7.32954 114.069 7.13636 115.077 7.13636C115.789 7.13636 116.421 7.19318 116.974 7.30682C117.527 7.42045 117.937 7.52273 118.202 7.61364L117.384 10.7955C117.209 10.7424 116.99 10.6894 116.724 10.6364C116.459 10.5758 116.164 10.5455 115.838 10.5455C115.073 10.5455 114.531 10.7311 114.213 11.1023C113.902 11.4659 113.747 11.9886 113.747 12.6705V31.5H109.622ZM124.696 8.22727V31.5H120.582V8.22727H124.696ZM128.926 31.5V14.0455H133.04V31.5H128.926ZM130.994 11.5682C130.343 11.5682 129.782 11.3523 129.312 10.9205C128.843 10.4811 128.608 9.95454 128.608 9.34091C128.608 8.7197 128.843 8.19318 129.312 7.76136C129.782 7.32197 130.343 7.10227 130.994 7.10227C131.653 7.10227 132.214 7.32197 132.676 7.76136C133.146 8.19318 133.381 8.7197 133.381 9.34091C133.381 9.95454 133.146 10.4811 132.676 10.9205C132.214 11.3523 131.653 11.5682 130.994 11.5682ZM137.27 38.0455V14.0455H141.315V16.9318H141.554C141.766 16.5076 142.065 16.0568 142.452 15.5795C142.838 15.0947 143.361 14.6818 144.02 14.3409C144.679 13.9924 145.52 13.8182 146.543 13.8182C147.891 13.8182 149.107 14.1629 150.19 14.8523C151.281 15.5341 152.145 16.5455 152.781 17.8864C153.425 19.2197 153.747 20.8561 153.747 22.7955C153.747 24.7121 153.433 26.3409 152.804 27.6818C152.175 29.0227 151.319 30.0455 150.236 30.75C149.152 31.4545 147.925 31.8068 146.554 31.8068C145.554 31.8068 144.724 31.6402 144.065 31.3068C143.406 30.9735 142.876 30.572 142.474 30.1023C142.08 29.625 141.774 29.1742 141.554 28.75H141.384V38.0455H137.27ZM141.304 22.7727C141.304 23.9015 141.463 24.8902 141.781 25.7386C142.107 26.5871 142.573 27.25 143.179 27.7273C143.793 28.197 144.535 28.4318 145.406 28.4318C146.315 28.4318 147.077 28.1894 147.69 27.7045C148.304 27.2121 148.766 26.5417 149.077 25.6932C149.395 24.8371 149.554 23.8636 149.554 22.7727C149.554 21.6894 149.399 20.7273 149.088 19.8864C148.777 19.0455 148.315 18.3864 147.702 17.9091C147.088 17.4318 146.323 17.1932 145.406 17.1932C144.527 17.1932 143.781 17.4242 143.168 17.8864C142.554 18.3485 142.088 18.9962 141.77 19.8295C141.459 20.6629 141.304 21.6439 141.304 22.7727Z" fill="#3869F4"/>
</svg>
