<svg width="491" height="755" viewBox="0 0 491 755" fill="none" xmlns="http://www.w3.org/2000/svg">
<path d="M139.722 163.354C164.797 163.355 185.126 183.675 185.126 208.742C185.126 233.809 164.797 254.129 139.722 254.13C114.646 254.129 94.3179 233.809 94.3179 208.742C94.3179 183.676 114.646 163.355 139.722 163.354Z" fill="#97B2FF" fill-opacity="0.05"/>
<path fill-rule="evenodd" clip-rule="evenodd" d="M372.388 327.849C376.849 328.501 381.757 328.893 387.146 328.993L389.953 329.019C418.662 329.019 429.747 296.541 434.798 263.052L435.268 259.808C442.666 206.751 416.341 198.519 394.485 196.03L372.388 327.849Z" fill="#97B2FF" fill-opacity="0.05"/>
<path d="M179.554 505.138C188.847 506.609 197.032 510.803 203.425 516.775L319.453 583.766C342.754 575.64 369.454 578.133 391.585 592.85L415.473 608.738C432.376 619.98 436.963 642.791 425.718 659.688L376.05 734.318C364.804 751.215 341.985 755.8 325.082 744.559L301.194 728.674C278.678 713.699 266.011 689.475 264.873 664.391L205.704 630.228L188.886 736.382C187.873 742.771 186.432 748.985 184.595 755H20.5743C46.2884 755 70.9498 744.789 89.1324 726.613C107.315 708.437 117.53 683.784 117.53 658.079C117.53 651.552 112.236 646.261 105.707 646.26C99.1764 646.26 93.8834 651.551 93.8834 658.079C93.8834 677.515 86.1596 696.155 72.4118 709.898C58.6693 723.636 40.0307 731.354 20.5964 731.36C13.7044 731.332 6.90454 730.42 0.349451 728.685V587.64C6.86068 585.772 13.6552 584.799 20.5499 584.796C41.2722 584.88 61.1618 592.959 76.0699 607.346L77.1607 608.437H58.4094C51.8798 608.437 46.5866 613.728 46.5862 620.256C46.5862 626.783 51.8795 632.076 58.4094 632.077H105.704C105.901 632.077 106.098 632.071 106.294 632.061C106.394 632.056 106.492 632.046 106.591 632.039C106.68 632.032 106.769 632.026 106.857 632.017C107.014 632.002 107.17 631.985 107.325 631.964C107.354 631.96 107.383 631.957 107.411 631.953C107.767 631.901 108.117 631.831 108.462 631.749C108.488 631.743 108.514 631.737 108.54 631.731C108.673 631.698 108.805 631.662 108.937 631.625C109 631.607 109.064 631.588 109.127 631.569C109.223 631.54 109.317 631.509 109.411 631.478L109.487 631.454C109.559 631.43 109.632 631.407 109.704 631.381C109.794 631.348 109.884 631.313 109.974 631.279L109.99 631.272C110.062 631.244 110.133 631.215 110.205 631.186C110.302 631.146 110.397 631.104 110.493 631.062C110.587 631.02 110.682 630.98 110.775 630.935C110.819 630.914 110.862 630.893 110.906 630.871L110.954 630.847C111.073 630.788 111.192 630.728 111.309 630.665C111.352 630.642 111.395 630.618 111.438 630.594C111.556 630.528 111.673 630.46 111.79 630.39C111.853 630.352 111.916 630.312 111.978 630.273C112.082 630.208 112.185 630.142 112.287 630.073C112.326 630.047 112.365 630.02 112.404 629.994C112.526 629.91 112.647 629.825 112.765 629.736C112.799 629.711 112.832 629.684 112.865 629.659C113.196 629.407 113.517 629.137 113.825 628.846C114.047 628.636 114.261 628.418 114.466 628.192C114.686 627.95 114.893 627.7 115.089 627.445C115.125 627.398 115.162 627.353 115.198 627.305C115.266 627.214 115.33 627.12 115.395 627.026L115.439 626.962C115.468 626.92 115.497 626.878 115.526 626.835C115.589 626.741 115.651 626.646 115.712 626.549C115.758 626.476 115.805 626.402 115.849 626.328C116.012 626.057 116.16 625.78 116.299 625.499C116.333 625.432 116.367 625.365 116.399 625.297C116.432 625.228 116.463 625.157 116.494 625.087C116.543 624.979 116.591 624.871 116.636 624.761C116.661 624.701 116.686 624.64 116.709 624.579C116.757 624.457 116.805 624.335 116.849 624.211C116.872 624.147 116.892 624.081 116.913 624.016C116.951 623.904 116.988 623.791 117.022 623.677C117.033 623.642 117.043 623.606 117.054 623.57L117.077 623.487C117.318 622.641 117.469 621.759 117.514 620.847C117.524 620.651 117.53 620.454 117.53 620.258V572.977C117.53 566.45 112.235 561.159 105.704 561.159C99.1749 561.159 93.8812 566.45 93.8812 572.977V591.718L92.6907 590.527C92.6577 590.494 92.6235 590.462 92.5895 590.429L92.5465 590.388C73.2417 571.732 47.469 561.26 20.6186 561.159H20.5743C13.7237 561.159 6.94793 561.883 0.349451 563.29V476.764L179.554 505.138Z" fill="#97B2FF" fill-opacity="0.05"/>
<path fill-rule="evenodd" clip-rule="evenodd" d="M403.171 142.139C416.952 143.923 438.469 148.727 456.669 163.41C488.196 188.846 494.718 227.966 489.23 267.327C486.592 286.244 481.641 311.485 469.84 333.299C457.024 356.988 431.547 383.484 389.953 383.484C380.182 383.484 370.297 382.752 360.64 381.058C337.822 440.089 275.981 476.997 211.102 466.131L0.349451 430.83L0 336.835L190.728 368.782C227.825 374.996 262.938 349.971 269.154 312.888L295.359 156.544C301.575 119.461 276.541 84.3601 239.444 78.1463L0.349451 38.0983V0H310.557C370.237 19.7558 409.29 78.6108 403.171 142.139ZM387.146 328.993C381.757 328.893 376.849 328.501 372.388 327.849L394.485 196.03C416.341 198.519 442.666 206.751 435.268 259.808L434.798 263.052C429.747 296.541 418.662 329.019 389.953 329.019L387.146 328.993Z" fill="#97B2FF" fill-opacity="0.05"/>
<path d="M0.349451 146.274C10.5891 154.596 17.1313 167.289 17.1313 181.51C17.1313 195.73 10.5891 208.423 0.349451 216.745V146.274Z" fill="#97B2FF" fill-opacity="0.05"/>
<path fill-rule="evenodd" clip-rule="evenodd" d="M279.554 409.26C282.434 407.444 285.961 406.625 289.588 407.199L375.788 420.856C378.766 421.328 381.39 422.673 383.439 424.588L420.627 446.074C428.095 443.467 436.653 444.267 443.746 448.987L451.403 454.083C456.821 457.688 458.291 465.004 454.686 470.423L438.767 494.358C435.163 499.778 427.849 501.248 422.431 497.643L414.775 492.548C407.558 487.746 403.498 479.976 403.134 471.931L384.169 460.975L378.779 495.02C375.007 518.841 352.644 535.094 328.829 531.321L300.122 526.773C276.308 522.999 260.06 500.63 263.831 476.809L268.906 444.761L246.425 451.266C244.142 458.989 238.339 465.557 230.182 468.488L221.528 471.598C215.403 473.798 208.655 470.616 206.455 464.49L196.739 437.435C194.54 431.309 197.722 424.559 203.846 422.359L212.5 419.249C220.517 416.368 229.016 417.645 235.641 421.966L279.554 409.26ZM352.119 466.117C350.026 466.117 348.329 467.814 348.329 469.907C348.329 476.14 345.854 482.119 341.447 486.526C337.043 490.932 331.069 493.408 324.84 493.41C318.198 493.383 311.823 490.792 307.045 486.178L306.696 485.829H312.705C314.798 485.828 316.495 484.131 316.496 482.038C316.496 479.944 314.798 478.248 312.705 478.247H297.577C297.443 478.246 297.308 478.252 297.174 478.265C297.143 478.268 297.111 478.273 297.08 478.277C297.048 478.28 297.017 478.284 296.985 478.289C296.955 478.293 296.925 478.298 296.894 478.304C296.865 478.309 296.835 478.314 296.805 478.32C296.775 478.326 296.745 478.333 296.715 478.34C296.683 478.347 296.65 478.354 296.618 478.362C296.592 478.368 296.566 478.376 296.541 478.383C296.509 478.392 296.477 478.4 296.446 478.409C296.417 478.418 296.387 478.428 296.358 478.438C296.327 478.448 296.295 478.458 296.264 478.469C296.239 478.478 296.215 478.488 296.19 478.498C296.156 478.511 296.121 478.524 296.087 478.539C296.073 478.545 296.06 478.551 296.046 478.557C295.945 478.6 295.846 478.648 295.748 478.7C295.739 478.705 295.73 478.709 295.721 478.714C295.624 478.768 295.529 478.826 295.436 478.889C295.43 478.893 295.424 478.897 295.418 478.901C295.325 478.964 295.234 479.031 295.146 479.103C295.117 479.127 295.089 479.153 295.06 479.178C294.994 479.235 294.93 479.294 294.867 479.357C294.798 479.427 294.731 479.499 294.668 479.572C294.65 479.594 294.63 479.615 294.612 479.638C294.593 479.66 294.576 479.684 294.558 479.707C294.54 479.73 294.522 479.753 294.504 479.777C294.48 479.81 294.456 479.843 294.433 479.877C294.421 479.894 294.409 479.91 294.397 479.928C294.339 480.015 294.285 480.105 294.234 480.196C294.225 480.213 294.215 480.228 294.206 480.245C294.185 480.285 294.165 480.326 294.145 480.367C294.138 480.379 294.132 480.392 294.126 480.405C294.106 480.447 294.087 480.489 294.069 480.531C294.062 480.546 294.055 480.56 294.049 480.574C294.035 480.608 294.022 480.642 294.01 480.675C293.997 480.707 293.985 480.739 293.974 480.771C293.969 480.786 293.964 480.801 293.958 480.816C293.945 480.857 293.931 480.898 293.919 480.939C293.909 480.97 293.901 481.001 293.893 481.032C293.886 481.057 293.878 481.083 293.872 481.109C293.864 481.141 293.857 481.174 293.85 481.206C293.843 481.236 293.836 481.266 293.83 481.296C293.824 481.326 293.819 481.356 293.813 481.385C293.808 481.416 293.803 481.446 293.798 481.476C293.794 481.508 293.79 481.539 293.786 481.571C293.783 481.602 293.778 481.634 293.775 481.666C293.763 481.789 293.757 481.914 293.757 482.038V497.201C293.757 499.294 295.454 500.992 297.547 500.992C299.64 500.992 301.336 499.294 301.336 497.201V491.189L301.719 491.572C301.734 491.587 301.749 491.602 301.765 491.617C307.952 497.6 316.213 500.959 324.819 500.991C324.823 500.991 324.828 500.991 324.833 500.991C333.074 500.991 340.979 497.717 346.807 491.887C352.634 486.058 355.908 478.151 355.908 469.907C355.908 467.814 354.212 466.117 352.119 466.117ZM324.833 438.823C316.591 438.823 308.687 442.098 302.859 447.927C297.031 453.757 293.757 461.663 293.757 469.907C293.757 472.001 295.454 473.698 297.547 473.698C299.64 473.698 301.336 472.001 301.336 469.907C301.336 463.674 303.812 457.696 308.218 453.288C312.623 448.882 318.596 446.406 324.825 446.404C331.467 446.431 337.842 449.022 342.62 453.636L342.969 453.986H336.959C334.867 453.986 333.17 455.683 333.17 457.776C333.17 459.87 334.866 461.568 336.959 461.568H352.118C352.181 461.568 352.244 461.566 352.307 461.563C352.339 461.561 352.371 461.558 352.402 461.556C352.431 461.553 352.459 461.551 352.488 461.549C352.538 461.544 352.588 461.538 352.637 461.531C352.647 461.53 352.656 461.529 352.665 461.528C352.779 461.511 352.891 461.489 353.002 461.462C353.01 461.461 353.019 461.459 353.027 461.457C353.07 461.446 353.112 461.435 353.154 461.423C353.174 461.417 353.195 461.411 353.215 461.405C353.246 461.396 353.276 461.386 353.306 461.376C353.337 461.365 353.369 461.356 353.4 461.344C353.431 461.333 353.461 461.322 353.492 461.31C353.515 461.301 353.538 461.291 353.561 461.282C353.592 461.269 353.622 461.256 353.653 461.242C353.683 461.229 353.713 461.216 353.743 461.202C353.762 461.192 353.782 461.183 353.801 461.173C353.839 461.154 353.877 461.135 353.914 461.115C353.928 461.107 353.942 461.1 353.956 461.092C353.994 461.071 354.031 461.049 354.069 461.027C354.089 461.015 354.109 461.002 354.129 460.989C354.162 460.968 354.195 460.947 354.228 460.925C354.24 460.917 354.253 460.908 354.265 460.9C354.304 460.873 354.343 460.846 354.381 460.817C354.392 460.809 354.402 460.8 354.413 460.792C354.519 460.711 354.622 460.625 354.721 460.531C354.792 460.464 354.86 460.394 354.926 460.322C354.997 460.244 355.063 460.164 355.126 460.082C355.137 460.067 355.149 460.053 355.161 460.037C355.188 460.001 355.213 459.964 355.238 459.927C355.247 459.914 355.257 459.9 355.266 459.887C355.286 459.856 355.306 459.826 355.326 459.795C355.34 459.771 355.355 459.748 355.37 459.724C355.422 459.637 355.469 459.548 355.514 459.458C355.525 459.437 355.536 459.415 355.546 459.393C355.556 459.371 355.566 459.348 355.576 459.326C355.592 459.291 355.607 459.257 355.622 459.221C355.63 459.202 355.638 459.183 355.645 459.163C355.661 459.124 355.676 459.085 355.69 459.045C355.697 459.024 355.704 459.003 355.711 458.983C355.723 458.947 355.734 458.91 355.746 458.874C355.752 458.854 355.758 458.833 355.763 458.813C355.84 458.542 355.889 458.258 355.903 457.966C355.906 457.903 355.908 457.84 355.908 457.777V442.613C355.908 440.52 354.211 438.823 352.118 438.823C350.025 438.823 348.329 440.52 348.329 442.613V448.624L347.947 448.242C347.932 448.227 347.916 448.212 347.901 448.197C341.713 442.214 333.453 438.855 324.847 438.823H324.833Z" fill="#3869F4"/>
<path d="M363.021 311.24C371.058 311.24 377.574 317.757 377.574 325.796C377.574 333.836 371.058 340.353 363.021 340.353C354.984 340.353 348.469 333.836 348.469 325.796C348.469 317.757 354.984 311.24 363.021 311.24Z" fill="#3869F4"/>
<path d="M309.177 302.506C317.214 302.506 323.729 309.023 323.729 317.062C323.729 325.102 317.214 331.619 309.177 331.619C301.14 331.619 294.624 325.102 294.624 317.062C294.624 309.023 301.14 302.506 309.177 302.506Z" fill="#3869F4"/>
<path fill-rule="evenodd" clip-rule="evenodd" d="M371.753 182.414C381.799 182.414 389.943 190.56 389.943 200.609C389.943 208.927 384.364 215.94 376.745 218.111L374.211 236.142C387.33 240.368 396.851 247.791 398.577 255.106L411.214 257.225C433.966 261.038 449.638 281.813 447.46 304.436C451.877 305.008 458.774 306.549 464.607 311.258C474.711 319.415 476.802 331.962 475.043 344.586C474.197 350.653 472.611 358.748 468.828 365.744C464.72 373.342 456.555 381.84 443.223 381.84C440.092 381.839 436.923 381.605 433.828 381.061C426.515 399.994 406.694 411.831 385.899 408.346L283.488 391.181C262.193 387.612 247.099 369.183 247.039 348.288C245.545 348.397 244.037 348.377 242.531 348.231C240.445 348.027 230.237 347.602 222.382 340.122C213.653 331.81 212.207 319.857 213.597 308.096C214.299 302.152 215.601 294.352 218.694 287.606C221.753 280.932 229.101 270.481 243.253 270.481C248.552 270.481 253.972 271.272 259.01 273.476C264.072 251.042 285.845 236.212 308.803 240.06L327.809 243.245C330.643 235.685 343.259 231.622 358.493 232.959L360.979 215.27C356.481 211.958 353.562 206.625 353.562 200.609C353.562 190.56 361.706 182.414 371.753 182.414ZM306.84 269.139C294.95 267.146 283.696 275.172 281.704 287.065L273.304 337.208C271.312 349.101 279.336 360.358 291.226 362.351L379.369 377.124C391.259 379.117 402.513 371.091 404.506 359.198L412.905 309.056C414.897 297.162 406.873 285.905 394.983 283.912L306.84 269.139ZM437.594 363.996C439.023 364.205 440.596 364.331 442.324 364.363L443.223 364.372C452.425 364.372 455.978 353.955 457.597 343.215L457.748 342.174C460.119 325.158 451.681 322.518 444.676 321.719L437.594 363.996ZM243.253 287.949C235.2 287.95 232.25 299.049 230.939 310.147C228.671 329.345 238.068 330.245 244.225 330.845C246.337 331.051 248.079 330.563 249.553 329.508L255.816 292.119C253.52 289.655 249.785 288.084 244.016 287.958L243.253 287.949Z" fill="#3869F4"/>
</svg>
